<svg xmlns="http://www.w3.org/2000/svg" width="20" height="23" viewBox="0 0 20 23">
  <g fill="#FFF" transform="translate(.005 .75)">
    <path d="M3.58233455,6.12253714 C3.58233455,9.49842589 6.31907999,12.2352661 9.69487398,12.2352661 C13.070739,12.2352661 15.8075319,9.49842589 15.8075319,6.12253714 C15.8075319,2.74669577 13.0707153,0.00995033703 9.69487398,0.00995033703 C6.31907999,0.00995033703 3.58233455,2.74669577 3.58233455,6.12253714 Z"/>
    <path d="M15.6003279,13.4946997 C15.1167416,13.1148337 14.4261171,13.1493046 13.9771911,13.5983017 C12.8720403,14.7034051 11.3526001,15.3940295 9.66040317,15.3940295 C7.9682299,15.3940295 6.44871867,14.7034051 5.34363897,13.5983017 C4.89464186,13.1493046 4.20397001,13.0802682 3.72054947,13.4946997 C1.85569047,15.0832236 0.474228325,17.1208394 0.0253259769,19.9181161 C-0.147407136,21.0576903 0.646914055,21.9901316 1.82110121,21.9901316 L17.6032597,21.9901316 C18.742905,21.9901316 19.5717207,21.0576903 19.3990823,19.9181161 C18.9155433,17.1208394 17.5342233,15.0832236 15.6003279,13.4946997 Z" opacity=".6"/>
  </g>
</svg>
