<svg xmlns="http://www.w3.org/2000/svg" width="18" height="24" viewBox="0 0 18 24">
  <g fill="#FFF" transform="translate(.188 .25)">
    <path d="M11.7983461,20.4040404 L6.62662898,20.4040404 C6.62662898,21.8262626 7.79026534,22.989899 9.21248756,22.989899 C10.6347098,22.989899 11.7983461,21.8262626 11.7983461,20.4040404 Z M7.91955826,1.30303031 L7.91955826,2.59595958 C8.35053469,2.53198653 8.78151113,2.5 9.21248756,2.5 C9.643464,2.5 10.0744404,2.53198653 10.5054169,2.59595958 L10.5054169,1.30303031 C10.5054169,0.591919194 9.92359867,0.010101 9.21248756,0.010101 C8.50137645,0.010101 7.91955826,0.591919194 7.91955826,1.30303031 Z"/>
    <path d="M1.98266887,19.1111111 C1.48159233,19.1111111 1.05209816,18.8525253 0.837351045,18.4646465 C0.622603961,18.0767677 0.694186333,17.559596 0.980515758,17.2363636 L2.48374541,15.5555556 C2.69849249,15.2969697 2.84165724,14.9737374 2.84165721,14.6505051 L2.84165721,9.28484847 C2.84165721,6.11717169 5.70495174,3.53131311 9.21248755,3.53131314 C12.7200234,3.53131317 15.5833179,6.11717172 15.5833179,9.28484847 L15.5833179,14.6505051 C15.5833179,14.9737374 15.7264826,15.2969697 15.9412297,15.5555556 L17.4444593,17.1717172 C17.7307888,17.4949495 17.8023712,18.0121212 17.5876241,18.4 C17.372877,18.7878788 16.9433828,19.0464646 16.4423062,19.0464646 L1.98266887,19.0464646 L1.98266887,19.1111111 Z" opacity=".6"/>
  </g>
</svg>
